<?xml version="1.0" encoding="UTF-8"?>
<!-- Generator: Adobe Illustrator 15.0.0, SVG Export Plug-In . SVG Version: 6.00 Build 0)  -->
<!DOCTYPE svg PUBLIC "-//W3C//DTD SVG 1.1//EN" "http://www.w3.org/Graphics/SVG/1.1/DTD/svg11.dtd">
<svg version="1.1" id="Calque_1" xmlns="http://www.w3.org/2000/svg" xmlns:xlink="http://www.w3.org/1999/xlink" x="0px" y="0px" width="120px" height="140px" viewBox="0 0 120 140" enable-background="new 0 0 120 140" xml:space="preserve">
<g>
	<g>
		<g>
			<circle fill="#F1DB44" cx="52.176" cy="52.174" r="52.176"/>
		</g>
		<g>
			<path fill="#22285D" d="M22.663,53.914v-0.002l-0.006-0.129l0,0c-0.021-0.158-0.075-0.23-0.159-0.313l-1.946-1.948     c-0.175-0.164-0.269-0.242-0.398-0.242c-0.129,0-0.222,0.078-0.397,0.242L17.81,53.47c-0.082,0.082-0.138,0.154-0.158,0.313l0,0     l-0.007,0.131v25.208c0,0.255,0.062,0.341,0.165,0.442l1.947,1.949c0.176,0.163,0.268,0.244,0.397,0.244     c0.129,0,0.224-0.081,0.398-0.244l1.946-1.949c0.104-0.103,0.165-0.188,0.165-0.442V60.74V53.914z"/>
			<path fill="#22285D" d="M25.405,69.904l1.946,1.948c0.164,0.174,0.245,0.268,0.245,0.396c0,0.131-0.081,0.223-0.245,0.398     l-1.946,1.947l-0.166,0.163c6.576,0,11.926-5.348,11.926-11.923c0-2.138-0.566-4.146-1.554-5.884l0,0l-0.003-0.001     c-1.563-2.742-4.18-4.809-7.296-5.64v0.001l0,0l0,0c-0.247-0.065-0.345-0.027-0.472,0.046l-2.384,1.381     c-0.202,0.127-0.304,0.194-0.338,0.32c-0.034,0.127,0.02,0.235,0.134,0.446l1.379,2.384c0.075,0.126,0.141,0.209,0.388,0.274l0,0     c1.802,0.48,3.314,1.676,4.22,3.261l0,0h0.003h-0.003c0.576,1.007,0.904,2.171,0.904,3.411c0,3.807-3.097,6.904-6.904,6.904     L25.405,69.904z"/>
		</g>
		<g>
			<g>
				<path fill="#22285D" d="M52.565,38.807L52.565,38.807L52.565,38.807z"/>
			</g>
			<path fill="#22285D" d="M64.544,46.771l-1.946-1.946c-0.175-0.164-0.268-0.244-0.397-0.244s-0.224,0.08-0.397,0.244l-1.948,1.946     l-0.164,0.171v-0.209c0-3.807-3.097-6.904-6.904-6.904s-6.904,3.098-6.904,6.904v2.066c0,0.255-0.062,0.34-0.165,0.443     l-1.948,1.947c-0.175,0.164-0.266,0.245-0.396,0.245s-0.223-0.081-0.397-0.245l-1.947-1.947     c-0.104-0.104-0.167-0.188-0.167-0.443v-2.066c0-6.574,5.35-11.924,11.926-11.924c6.575,0,11.925,5.35,11.925,11.924v0.209     L64.544,46.771z"/>
			<path fill="#22285D" d="M41.026,53.371l1.947,1.949c0.175,0.162,0.267,0.243,0.397,0.243c0.13,0,0.222-0.081,0.396-0.243     l1.948-1.949l0.165-0.169v0.207c0,3.809,3.098,6.906,6.904,6.906c3.808,0,6.904-3.098,6.904-6.906v-2.066     c0-0.254,0.063-0.34,0.164-0.441l1.948-1.95c0.176-0.162,0.268-0.241,0.396-0.241c0.132,0,0.225,0.079,0.398,0.241l1.946,1.95     c0.104,0.102,0.166,0.188,0.166,0.441v2.066c0,6.578-5.35,11.927-11.925,11.927c-6.576,0-11.926-5.349-11.926-11.927v-0.207     L41.026,53.371z"/>
		</g>
		<g>
			<path fill="#22285D" d="M75.762,25.285c0-0.001,0-0.001,0-0.003l-0.01-0.129l0,0c-0.02-0.156-0.074-0.229-0.156-0.311     l-1.947-1.948c-0.176-0.164-0.269-0.243-0.397-0.243c-0.131,0-0.224,0.079-0.396,0.243l-1.951,1.948     c-0.08,0.082-0.137,0.154-0.155,0.311l0,0l-0.008,0.132v25.21c0,0.254,0.063,0.34,0.163,0.443l1.951,1.946     c0.174,0.166,0.266,0.244,0.396,0.244s0.224-0.078,0.397-0.244l1.947-1.946c0.102-0.104,0.166-0.189,0.166-0.443V32.113V25.285z"/>
			<path fill="#22285D" d="M78.5,27.506l1.947-1.946c0.164-0.176,0.244-0.269,0.244-0.398c0-0.131-0.08-0.224-0.244-0.397     l-1.947-1.95l-0.165-0.164c6.576,0,11.925,5.349,11.925,11.924c0,2.139-0.564,4.146-1.554,5.884h0.002l-0.002,0.001     c-1.563,2.742-4.183,4.809-7.298,5.641v-0.002l0,0l0,0c-0.245,0.064-0.344,0.027-0.471-0.045l-2.385-1.382     c-0.203-0.126-0.305-0.194-0.339-0.321c-0.032-0.126,0.022-0.235,0.134-0.445l1.381-2.384c0.074-0.127,0.141-0.208,0.385-0.273     l0,0c1.804-0.48,3.316-1.676,4.223-3.262h0.002l0,0l0,0c0.573-1.008,0.9-2.172,0.9-3.411c0-3.807-3.096-6.904-6.903-6.904     L78.5,27.506z"/>
		</g>
	</g>
	<g>
		<circle fill="#F1DB44" cx="86.207" cy="106.207" r="33.793"/>
		<g enable-background="new    ">
			<path fill="#FFFFFF" d="M77.332,110.343v-9.816h1.191v8.694h3.352v1.122H77.332z"/>
			<path fill="#FFFFFF" d="M87.723,110.343l-0.617-2.37h-2.832l-0.617,2.37h-1.207l2.566-9.816h1.332l2.58,9.816H87.723z      M86.152,104.285c-0.225-0.842-0.295-1.739-0.449-2.595h-0.027c-0.154,0.855-0.225,1.753-0.449,2.595l-0.674,2.566h2.258     L86.152,104.285z"/>
			<path fill="#FFFFFF" d="M90.232,110.343v-9.816h2.299c1.67,0,2.581,1.221,2.581,2.623v0.21c0,0.869-0.435,1.641-1.234,2.048     c0.897,0.378,1.374,1.191,1.374,2.103v0.211c0,1.402-0.911,2.622-2.58,2.622H90.232z M93.92,103.149     c0-0.8-0.406-1.501-1.389-1.501h-1.107v3.226h1.066c1.01,0,1.43-0.701,1.43-1.515V103.149z M94.061,107.51     c0-0.813-0.421-1.514-1.43-1.514h-1.207v3.225h1.248c0.982,0,1.389-0.701,1.389-1.5V107.51z"/>
		</g>
	</g>
</g>
</svg>