<?xml version="1.0" encoding="UTF-8" standalone="no"?>
<svg
   xmlns:dc="http://purl.org/dc/elements/1.1/"
   xmlns:cc="http://creativecommons.org/ns#"
   xmlns:rdf="http://www.w3.org/1999/02/22-rdf-syntax-ns#"
   xmlns:svg="http://www.w3.org/2000/svg"
   xmlns="http://www.w3.org/2000/svg"
   xmlns:sodipodi="http://sodipodi.sourceforge.net/DTD/sodipodi-0.dtd"
   xmlns:inkscape="http://www.inkscape.org/namespaces/inkscape"
   version="1.1"
   x="0px"
   y="0px"
   viewBox="0 0 200 200"
   enable-background="new 0 0 200 200"
   xml:space="preserve"
   id="svg4212"
   inkscape:version="0.91 r13725"
   sodipodi:docname="pop-devicelab.svg"><metadata
     id="metadata4248"><rdf:RDF><cc:Work
         rdf:about=""><dc:format>image/svg+xml</dc:format><dc:type
           rdf:resource="http://purl.org/dc/dcmitype/StillImage" /><dc:title></dc:title></cc:Work></rdf:RDF></metadata><defs
     id="defs4246" /><sodipodi:namedview
     pagecolor="#ffffff"
     bordercolor="#666666"
     borderopacity="1"
     objecttolerance="10"
     gridtolerance="10"
     guidetolerance="10"
     inkscape:pageopacity="0"
     inkscape:pageshadow="2"
     inkscape:window-width="1920"
     inkscape:window-height="1027"
     id="namedview4244"
     showgrid="false"
     inkscape:zoom="3.98"
     inkscape:cx="79.899497"
     inkscape:cy="100"
     inkscape:window-x="0"
     inkscape:window-y="27"
     inkscape:window-maximized="1"
     inkscape:current-layer="svg4212" /><style
     id="style4214">.style0{fill:	#21B3DA;}.style1{fill:	#22285D;}</style><g
     id="g4296"><g
       id="g4216"><circle
         cx="100"
         cy="100"
         r="100"
         class="style0"
         id="circle4220"
         style="fill:#f1db44;fill-opacity:1" /><g
         style="fill:#ffffff"
         id="g4222"><path
           style="fill:#ffffff"
           id="path4224"
           class="style1"
           d="M43.437 103.33v-0.002l-0.014-0.248l0 0c-0.036-0.301-0.144-0.44-0.303-0.598l-3.732-3.732 c-0.333-0.314-0.511-0.467-0.762-0.467c-0.249 0-0.426 0.153-0.762 0.467l-3.732 3.732c-0.157 0.157-0.265 0.297-0.303 0.598l0 0 l-0.014 0.25v48.318c0 0.5 0.1 0.7 0.3 0.849l3.732 3.735c0.335 0.3 0.5 0.5 0.8 0.5 c0.251 0 0.429-0.154 0.762-0.467l3.732-3.735c0.198-0.198 0.317-0.36 0.317-0.849v-35.232V103.33z" /><path
           style="fill:#ffffff"
           id="path4226"
           class="style1"
           d="M48.69 133.98l3.733 3.732c0.312 0.3 0.5 0.5 0.5 0.762c0 0.25-0.155 0.426-0.467 0.8 l-3.733 3.734l-0.317 0.314c12.604 0 22.856-10.251 22.856-22.854c0-4.098-1.083-7.946-2.978-11.275l0 0l-0.004-0.002 c-2.994-5.256-8.01-9.216-13.984-10.81v0.002l0 0l0 0c-0.472-0.125-0.659-0.052-0.903 0.089l-4.569 2.6 c-0.388 0.242-0.582 0.374-0.647 0.615c-0.064 0.2 0 0.5 0.3 0.855l2.645 4.569c0.142 0.2 0.3 0.4 0.7 0.5 l0 0c3.455 0.9 6.4 3.2 8.1 6.25h0.002h0.002h-0.002c1.104 1.9 1.7 4.2 1.7 6.5 c0 7.297-5.936 13.231-13.232 13.231L48.69 133.98z" /></g><g
         style="fill:#ffffff"
         id="g4228"><g
           style="fill:#ffffff"
           id="g4230"><polygon
             style="fill:#ffffff"
             id="polygon4232"
             class="style1"
             points="100.7,74.4 100.7,74.4 100.7,74.4" /></g><path
           style="fill:#ffffff"
           id="path4234"
           class="style1"
           d="M123.707 89.644l-3.733-3.732c-0.335-0.314-0.511-0.467-0.761-0.467c-0.251 0-0.429 0.153-0.762 0.5 l-3.735 3.732l-0.314 0.324v-0.396c0-7.296-5.938-13.234-13.233-13.234c-7.295 0-13.232 5.938-13.232 13.234v3.96 c0 0.488-0.118 0.65-0.317 0.848l-3.732 3.733c-0.335 0.314-0.511 0.467-0.762 0.467c-0.25 0-0.426-0.153-0.761-0.467 l-3.733-3.733c-0.198-0.198-0.319-0.36-0.319-0.848v-3.96c0-12.604 10.253-22.855 22.856-22.855 c12.604 0 22.9 10.2 22.9 22.855v0.396L123.707 89.644z" /><path
           style="fill:#ffffff"
           id="path4236"
           class="style1"
           d="M78.63 102.294l3.733 3.735c0.335 0.3 0.5 0.5 0.8 0.467c0.251 0 0.427-0.154 0.762-0.467 l3.732-3.735l0.317-0.323v0.396c0 7.3 5.9 13.2 13.2 13.233c7.296 0 13.233-5.935 13.233-13.233v-3.961 c0-0.488 0.118-0.652 0.314-0.848l3.735-3.735c0.333-0.313 0.511-0.465 0.762-0.465c0.25 0 0.4 0.2 0.8 0.465l3.733 3.7 c0.198 0.2 0.3 0.4 0.3 0.848v3.961c0 12.604-10.251 22.857-22.855 22.857c-12.603 0-22.856-10.254-22.856-22.857v-0.396 L78.63 102.294z" /></g><g
         style="fill:#ffffff"
         id="g4238"><path
           style="fill:#ffffff"
           id="path4240"
           class="style1"
           d="M145.204 48.462c0-0.002 0-0.002 0-0.005l-0.017-0.249l0 0c-0.036-0.298-0.144-0.438-0.301-0.595 l-3.732-3.733c-0.335-0.314-0.513-0.467-0.762-0.467c-0.251 0-0.429 0.153-0.762 0.467l-3.734 3.7 c-0.157 0.157-0.265 0.296-0.301 0.595l0 0l-0.017 0.253v48.317c0 0.5 0.1 0.7 0.3 0.851l3.734 3.7 c0.333 0.3 0.5 0.5 0.8 0.468c0.249 0 0.427-0.152 0.762-0.468l3.732-3.732c0.196-0.198 0.317-0.363 0.317-0.851V61.548 V48.462z" /><path
           style="fill:#ffffff"
           id="path4242"
           class="style1"
           d="M150.455 52.719l3.732-3.732c0.313-0.335 0.468-0.511 0.468-0.762s-0.155-0.429-0.468-0.762l-3.732-3.732 l-0.317-0.317c12.604 0 22.9 10.3 22.9 22.854c0 4.1-1.083 7.946-2.978 11.276h0.002l-0.005 0 c-2.996 5.256-8.012 9.216-13.986 10.81v-0.002l0 0l0 0c-0.47 0.125-0.659 0.052-0.9-0.089l-4.569-2.645 c-0.39-0.242-0.584-0.374-0.65-0.616c-0.062-0.242 0.041-0.452 0.256-0.855l2.647-4.569c0.139-0.242 0.267-0.399 0.738-0.525l0 0 c3.455-0.921 6.354-3.211 8.09-6.251h0.003l0 0l0 0c1.101-1.929 1.728-4.161 1.728-6.537c0-7.294-5.935-13.231-13.231-13.231 L150.455 52.719z" /></g></g><text
       inkscape:transform-center-y="-13.544046"
       inkscape:transform-center-x="-21.987399"
       transform="matrix(0.83358434,-0.466564,0.48518676,0.92807565,0,0)"
       sodipodi:linespacing="125%"
       id="text4250"
       y="96.492783"
       x="-12.943179"
       style="font-style:normal;font-variant:normal;font-weight:normal;font-stretch:normal;font-size:9.67129898px;line-height:125%;font-family:'Myriad Pro';-inkscape-font-specification:'Myriad Pro';letter-spacing:0px;word-spacing:0px;fill:#ffffff;fill-opacity:1;stroke:none;stroke-width:1px;stroke-linecap:butt;stroke-linejoin:miter;stroke-opacity:1;"
       xml:space="preserve"><tspan
         style="font-style:normal;font-variant:normal;font-weight:normal;font-stretch:normal;font-size:24.17824745px;font-family:Photonica;-inkscape-font-specification:Photonica;fill:#ffffff;fill-opacity:1;stroke:none;stroke-opacity:1;"
         y="96.492783"
         x="-12.943179"
         id="tspan4252"
         sodipodi:role="line">Device</tspan></text>
<text
       inkscape:transform-center-y="-18.599735"
       inkscape:transform-center-x="1.2027086"
       transform="matrix(-0.02238394,-0.99519376,1.0017851,-0.13535251,0,0)"
       sodipodi:linespacing="125%"
       id="text4250-7"
       y="28.347004"
       x="-153.73363"
       style="font-style:normal;font-variant:normal;font-weight:normal;font-stretch:normal;font-size:6.75353098px;line-height:125%;font-family:'Myriad Pro';-inkscape-font-specification:'Myriad Pro';letter-spacing:0px;word-spacing:0px;fill:#ffffff;fill-opacity:1;stroke:none;stroke-width:1px;stroke-linecap:butt;stroke-linejoin:miter;stroke-opacity:1;"
       xml:space="preserve"><tspan
         id="tspan4273"
         style="font-style:normal;font-variant:normal;font-weight:normal;font-stretch:normal;font-size:16.88382721px;font-family:Photonica;-inkscape-font-specification:Photonica;fill:#ffffff;fill-opacity:1;stroke:none;stroke-width:1px;stroke-opacity:1;"
         y="28.347004"
         x="-153.73363"
         sodipodi:role="line">lab</tspan></text>
</g></svg>